<svg fill="none" height="41" viewBox="0 0 40 41" width="40" xmlns="http://www.w3.org/2000/svg" xmlns:xlink="http://www.w3.org/1999/xlink"><clipPath id="a"><path d="m0 .682617h40v40h-40z"/></clipPath><g clip-path="url(#a)"><path d="m32.5257 37.1837c-3.1252-1.797-7.6845-3.9109-10.4709-6.2472-.607-.5089-1.461-2.8423-1.461-4.0428m17.4064 4.0428c-2.4155-1.432-3.9355-2.4078-3.9355-2.4078.1126-1.1512 1.2285-6.065.3378-8.5079-.3378-.9266-1.843-.9529-2.2704.757-.2187.8745-.2187 2.4048-.328 2.5141 0-1.8244-.3279-6.9505-.3279-10.8215 0-2.98338-1.9676-2.95138-2.5141-1.749-.1647-1.56132-.1093-2.95131-1.421-3.06064-1.3117-.10932-1.8354 1.4395-1.8354 2.35294.087-.60964-.1119-1.47846-1.6625-1.15055-1.5506.32792-1.3491 3.47535-1.3011 4.11415 0-2.4428-2.1436-1.5413-2.1436 1.1814-.0001 1.2138-.0047 4.1366-.0047 7.3328" stroke="#000" stroke-linecap="round" stroke-linejoin="round" stroke-width="1.2"/><path d="m26.3074 10.0127v-.6h-1.2v.6zm-1.2801 8.5703c0 .3314.2687.6.6.6.3314 0 .6-.2686.6-.6zm-1.6834-6.0873v-.6h-1.2v.6zm-1.2 5.847c0 .3314.2686.6.6.6.3313 0 .6-.2686.6-.6zm7.461-7.5931.025-.5995-1.1989-.0501-.0251.5995zm-1.4538 7.9936c0 .3314.2686.6.6.6s.6-.2686.6-.6zm-5.8933.3781c-.3314 0-.6.2687-.6.6 0 .3314.2686.6.6.6zm7.1866 2.2743c.3147.1037.6539-.0674.7576-.3821.1037-.3148-.0674-.654-.3821-.7577zm-4.337-11.3829c0 1.1569-.0199 2.8549-.04 4.488-.02 1.6295-.0401 3.1965-.0401 4.0823h1.2c0-.8763.02-2.4331.04-4.0675.02-1.6308.0401-3.3369.0401-4.5028zm-2.9635 2.483v.0112.0113.0113.0113.0113.0113.0113.0114.0113.0114.0113.0114.0114.0113.0114.0114.0114.0115.0114.0114.0115.0114.0115.0114.0115.0115.0115.0115.0115.0115.0115.0115.0116.0115.0116.0115.0116.0116.0115.0116.0116.0116.0116.0116.0117.0116.0116.0117.0116.0117.0116.0117.0117.0117.0116.0117.0117.0118.0117.0117.0117.0117.0118.0117.0118.0117.0118.0118.0117.0118.0118.0118.0118.0118.0118.0118.0118.0119.0118.0118.0119.0118.0118.0119.0119.0118.0119.0119.0118.0119.0119.0119.0119.0119.0119.0119.0119.012.0119.0119.0119.012.0119.012.0119.012.0119.012.0119.012.012.0119.012.012.012.012.012.012.012.012.012.012.012.012.012.012.0121.012.012.012.0121.012.012.0121.012.0121.012.0121.012.0121.012.0121.0121.012.0121.012.0121.0121.0121.012.0121.0121.0121.012.0121.0121.0121.0121.0121.0121.012.0121.0121.0121.0121.0121.0121.0121.0121.0121.0121.0121.0121.0121.0121.0121.0121.0121.0121.0121.0121.0121.0121.0121.0121.0121.0121.0121.0121.0121.0121.0121.0121.0121.0121.0121.0121.0121.0121.0121.0121.0121.0121.012.0121.0121.0121.0121.0121.0121.012.0121.0121.0121.0121.012.0121.0121.0121.012.0121.0121.012.0121.012.0121.012.0121.012.0121.012.0121.012.0121.012.012.0121.012.012.012.012.0121.012.012.012.012.012.012.012.012.012.0119.012.012.012.0119.012.012.0119.012.0119.012.0119.012.0119.0119.0119.012.0119.0119.0119.0119.0119.0119.0119.0119.0119.0118.0119.0119.0118.0119.0119.0118.0118.0119.0118.0118.0119.0118.0118.0118.0118.0118.0118.0118.0117.0118.0118.0117.0118.0118.0117.0117.0118.0117.0117.0117.0117.0117.0117.0117.0117.0117.0116.0117.0116.0117.0116.0117.0116.0116.0116.0116.0116.0116.0116.0116.0115.0116.0116.0115.0116.0115.0115.0115.0115.0115.0115.0115.0115.0115.0114.0115.0114.0115.0114.0114.0114.0114.0114.0114.0114.0114.0113.0114.0113.0114.0113.0113.0113.0113.0113.0113.0113.0113.0112.0113.0112.0112.0112.0113.0112.0112.0111.0112.0112.0111.0112.0111.0111.0111.0111.0111.0111.0111.011.0111.011.0111.011.011.011.011.011.0109.011.0109.011.0109.0109.0109.0109.0109.0109.0108.0109.0108.0108.0108.0108.0108.0108.0108.0107.0108.0107.0107.0108.0106.0107.0107.0107.0106.0107.0106.0106.0106.0106.0106.0105.0106.0105.0106.0105.0105.0105.0104.0105.0104.0105.0104.0104.0104.0104.0104.0103.0104.0103.0103.0103.0103.0103.0103.0102.0103.0102.0102.0102.0102.0102.0101.0102.0101.0101.0101.0101.0101.01.01.0101.01.01.01.0099.01.0099.01.0099.0099.0099.0098.0099.0098.0098.0098.0098.0098.0098.0097.0097.0097.0097.0097.0097.0096.0097.0096.0096.0096.0096.0095.0096.0095.0095.0095.0095.0094.0095.0094.0094.0094h1.2c0-.0031 0-.0063 0-.0094s0-.0063 0-.0094 0-.0063 0-.0094c0-.0032 0-.0063 0-.0095 0-.0031 0-.0063 0-.0094 0-.0032 0-.0063 0-.0095s0-.0063 0-.0095 0-.0063 0-.0095 0-.0064 0-.0095c0-.0032 0-.0064 0-.0096s0-.0063 0-.0095 0-.0064 0-.0096 0-.0064 0-.0096 0-.0064 0-.0096 0-.0064 0-.0096 0-.0064 0-.0097c0-.0032 0-.0064 0-.0096s0-.0064 0-.0097c0-.0032 0-.0064 0-.0097 0-.0032 0-.0064 0-.0097 0-.0032 0-.0064 0-.0097 0-.0032 0-.0064 0-.0097 0-.0032 0-.0065 0-.0097 0-.0033 0-.0065 0-.0098s0-.0065 0-.0098c0-.0032 0-.0065 0-.0098 0-.0032 0-.0065 0-.0098 0-.0032 0-.0065 0-.0098s0-.0065 0-.0098 0-.0066 0-.0099 0-.0066 0-.0098c0-.0033 0-.0066 0-.0099s0-.0066 0-.0099 0-.0066 0-.0099 0-.0066 0-.01c0-.0033 0-.0066 0-.0099s0-.0066 0-.01c0-.0033 0-.0066 0-.0099 0-.0034 0-.0067 0-.01s0-.0067 0-.01 0-.0067 0-.01c0-.0034 0-.0067 0-.0101 0-.0033 0-.0066 0-.01 0-.0033 0-.0067 0-.01 0-.0034 0-.0068 0-.0101 0-.0034 0-.0067 0-.0101s0-.0067 0-.0101 0-.0067 0-.0101 0-.0068 0-.0101c0-.0034 0-.0068 0-.0102s0-.0068 0-.0101c0-.0034 0-.0068 0-.0102s0-.0068 0-.0102 0-.0068 0-.0102 0-.0068 0-.0102 0-.0068 0-.0102 0-.0069 0-.0103 0-.0068 0-.0102 0-.0069 0-.0103 0-.0068 0-.0103c0-.0034 0-.0068 0-.0103 0-.0034 0-.0068 0-.0103 0-.0034 0-.0068 0-.0103 0-.0034 0-.0069 0-.0103 0-.0035 0-.0069 0-.0104 0-.0034 0-.0069 0-.0103 0-.0035 0-.0069 0-.0104s0-.0069 0-.0104c0-.0034 0-.0069 0-.0104 0-.0034 0-.0069 0-.0104s0-.0069 0-.0104 0-.007 0-.0105c0-.0034 0-.0069 0-.0104s0-.007 0-.0105 0-.007 0-.0104c0-.0035 0-.007 0-.0105s0-.007 0-.0105 0-.007 0-.0105c0-.0036 0-.0071 0-.0106s0-.007 0-.0105 0-.007 0-.0106c0-.0035 0-.007 0-.0105 0-.0036 0-.0071 0-.0106s0-.0071 0-.0106 0-.0071 0-.0106 0-.0071 0-.0106c0-.0036 0-.0071 0-.0106 0-.0036 0-.0071 0-.0107 0-.0035 0-.0071 0-.0106 0-.0036 0-.0071 0-.0107 0-.0035 0-.0071 0-.0107 0-.0035 0-.0071 0-.0107 0-.0035 0-.0071 0-.0106 0-.0036 0-.0072 0-.0108 0-.0035 0-.0071 0-.0107s0-.0071 0-.0107 0-.0072 0-.0108c0-.0035 0-.0071 0-.0107s0-.0072 0-.0108 0-.0072 0-.0108 0-.0072 0-.0108 0-.0072 0-.0108 0-.0072 0-.0108 0-.0072 0-.0108 0-.0072 0-.0108 0-.0073 0-.0109 0-.0072 0-.0108c0-.0037 0-.0073 0-.0109s0-.0073 0-.0109 0-.0073 0-.0109 0-.0073 0-.0109 0-.0073 0-.0109 0-.0073 0-.0109c0-.0037 0-.0073 0-.011 0-.0036 0-.0073 0-.0109 0-.0037 0-.0073 0-.011 0-.0036 0-.0073 0-.0109 0-.0037 0-.0074 0-.011 0-.0037 0-.0073 0-.011s0-.0073 0-.011 0-.0073 0-.011 0-.0074 0-.011c0-.0037 0-.0074 0-.0111 0-.0036 0-.0073 0-.011s0-.0074 0-.0111c0-.0036 0-.0073 0-.011s0-.0074 0-.0111 0-.0074 0-.0111 0-.0074 0-.0111 0-.0074 0-.0111 0-.0074 0-.0111 0-.0074 0-.0111 0-.0074 0-.0111c0-.0038 0-.0075 0-.0112s0-.0074 0-.0111c0-.0038 0-.0075 0-.0112s0-.0074 0-.0112c0-.0037 0-.0074 0-.0111 0-.0038 0-.0075 0-.0112 0-.0038 0-.0075 0-.0112 0-.0038 0-.0075 0-.0113 0-.0037 0-.0074 0-.0112 0-.0037 0-.0075 0-.0112s0-.0075 0-.0112c0-.0038 0-.0075 0-.0113 0-.0037 0-.0075 0-.0112 0-.0038 0-.0075 0-.0113s0-.0075 0-.0113c0-.0037 0-.0075 0-.0113 0-.0037 0-.0075 0-.0113 0-.0037 0-.0075 0-.0113 0-.0037 0-.0075 0-.0113 0-.0037 0-.0075 0-.0113s0-.0075 0-.0113 0-.0076 0-.0114c0-.0037 0-.0075 0-.0113s0-.0076 0-.0114c0-.0037 0-.0075 0-.0113s0-.0076 0-.0114 0-.0076 0-.0114 0-.0076 0-.0114 0-.0076 0-.0114 0-.0076 0-.0114 0-.0076 0-.0114 0-.0076 0-.0114 0-.0076 0-.0114 0-.0077 0-.0115 0-.0076 0-.0114 0-.0076 0-.0115c0-.0038 0-.0076 0-.0114 0-.0039 0-.0077 0-.0115s0-.0077 0-.0115 0-.0076 0-.0115c0-.0038 0-.0076 0-.0115 0-.0038 0-.0076 0-.0115 0-.0038 0-.0076 0-.0115 0-.0038 0-.0076 0-.0115 0-.0038 0-.0077 0-.0115 0-.0039 0-.0077 0-.0115 0-.0039 0-.0077 0-.0116 0-.0038 0-.0077 0-.0115 0-.0039 0-.0077 0-.0116 0-.0038 0-.0077 0-.0116 0-.0038 0-.0077 0-.0115 0-.0039 0-.0077 0-.0116s0-.0077 0-.0116c0-.0038 0-.0077 0-.0116 0-.0038 0-.0077 0-.0116 0-.0038 0-.0077 0-.0116s0-.0077 0-.0116 0-.0077 0-.0116 0-.0078 0-.0116c0-.0039 0-.0078 0-.0117s0-.0077 0-.0116 0-.0078 0-.0117c0-.0038 0-.0077 0-.0116s0-.0078 0-.0117 0-.0078 0-.0116c0-.0039 0-.0078 0-.0117s0-.0078 0-.0117 0-.0078 0-.0117 0-.0078 0-.0117 0-.0078 0-.0117 0-.0078 0-.0117 0-.0078 0-.0117 0-.0078 0-.0117 0-.0078 0-.0117 0-.0079 0-.0118 0-.0078 0-.0117 0-.0078 0-.0117c0-.004 0-.0079 0-.0118s0-.0078 0-.0118c0-.0039 0-.0078 0-.0117s0-.0079 0-.0118 0-.0078 0-.0118c0-.0039 0-.0078 0-.0117 0-.004 0-.0079 0-.0118s0-.0079 0-.0118 0-.0079 0-.0118 0-.0079 0-.0118 0-.0079 0-.0118 0-.0079 0-.0118c0-.004 0-.0079 0-.0118 0-.004 0-.0079 0-.0119 0-.0039 0-.0078 0-.0118 0-.0039 0-.0079 0-.0118 0-.004 0-.0079 0-.0119 0-.0039 0-.0078 0-.0118 0-.0039 0-.0079 0-.0118 0-.004 0-.0079 0-.0119 0-.0039 0-.0079 0-.0119 0-.0039 0-.0079 0-.0118 0-.004 0-.0079 0-.0119 0-.0039 0-.0079 0-.0119 0-.0039 0-.0079 0-.0118 0-.004 0-.008 0-.0119 0-.004 0-.0079 0-.0119s0-.0079 0-.0119 0-.0079 0-.0119 0-.0079 0-.0119 0-.0079 0-.0119 0-.0079 0-.0119 0-.0079 0-.0119 0-.008 0-.0119c0-.004 0-.008 0-.012 0-.0039 0-.0079 0-.0119s0-.0079 0-.0119 0-.008 0-.0119c0-.004 0-.008 0-.012s0-.0079 0-.0119 0-.008 0-.012 0-.0079 0-.0119 0-.008 0-.012 0-.0079 0-.0119 0-.008 0-.012 0-.008 0-.012 0-.0079 0-.0119 0-.008 0-.012 0-.008 0-.012 0-.008 0-.012 0-.0079 0-.0119 0-.008 0-.012 0-.008 0-.012 0-.008 0-.012 0-.008 0-.012 0-.008 0-.012 0-.008 0-.012 0-.008 0-.012 0-.008 0-.012 0-.008 0-.012 0-.0081 0-.0121 0-.008 0-.012 0-.008 0-.012 0-.008 0-.012 0-.008 0-.012c0-.0041 0-.0081 0-.0121s0-.008 0-.012 0-.008 0-.012c0-.0041 0-.0081 0-.0121s0-.008 0-.012 0-.0081 0-.0121 0-.008 0-.012 0-.008 0-.0121c0-.004 0-.008 0-.012s0-.008 0-.0121c0-.004 0-.008 0-.012s0-.008 0-.0121c0-.004 0-.008 0-.012s0-.0081 0-.0121 0-.008 0-.012c0-.0041 0-.0081 0-.0121s0-.0081 0-.0121 0-.008 0-.012c0-.0041 0-.0081 0-.0121s0-.0081 0-.0121 0-.008 0-.0121c0-.004 0-.008 0-.012 0-.0041 0-.0081 0-.0121s0-.0081 0-.0121 0-.008 0-.0121c0-.004 0-.008 0-.0121 0-.004 0-.008 0-.012 0-.0041 0-.0081 0-.0121s0-.0081 0-.0121 0-.0081 0-.0121 0-.008 0-.0121c0-.004 0-.008 0-.0121 0-.004 0-.008 0-.0121 0-.004 0-.008 0-.012 0-.0041 0-.0081 0-.0121 0-.0041 0-.0081 0-.0121 0-.0041 0-.0081 0-.0121 0-.0041 0-.0081 0-.0121 0-.0041 0-.0081 0-.0121s0-.0081 0-.0121 0-.0081 0-.0121 0-.0081 0-.0121 0-.0081 0-.0121 0-.0081 0-.0121 0-.0081 0-.0121 0-.0081 0-.0121 0-.0081 0-.0121 0-.0081 0-.0121 0-.0081 0-.0121 0-.0081 0-.0121 0-.0081 0-.0121 0-.0081 0-.0121 0-.0081 0-.0121 0-.0081 0-.0121 0-.0081 0-.0121 0-.0081 0-.0121 0-.0081 0-.0121 0-.0081 0-.0121 0-.0081 0-.0121c0-.0041 0-.0081 0-.0121 0-.0041 0-.0081 0-.0121 0-.0041 0-.0081 0-.0121 0-.0041 0-.0081 0-.0121 0-.0041 0-.0081 0-.0121 0-.0041 0-.0081 0-.0121s0-.0081 0-.0121 0-.0081 0-.0121 0-.0081 0-.0121 0-.0081 0-.0121 0-.0081 0-.0121 0-.0081 0-.0121 0-.0081 0-.0121 0-.0081 0-.0121 0-.008 0-.0121c0-.004 0-.008 0-.0121 0-.004 0-.008 0-.0121 0-.004 0-.008 0-.012 0-.0041 0-.0081 0-.0121 0-.0041 0-.0081 0-.0121 0-.0041 0-.0081 0-.0121s0-.0081 0-.0121 0-.008 0-.0121c0-.004 0-.008 0-.0121 0-.004 0-.008 0-.012 0-.0041 0-.0081 0-.0121s0-.0081 0-.0121 0-.008 0-.0121c0-.004 0-.008 0-.012 0-.0041 0-.0081 0-.0121s0-.0081 0-.0121 0-.008 0-.0121c0-.004 0-.008 0-.012s0-.0081 0-.0121 0-.008 0-.012c0-.0041 0-.0081 0-.0121s0-.008 0-.0121c0-.004 0-.008 0-.012s0-.0081 0-.0121 0-.008 0-.012 0-.0081 0-.0121 0-.008 0-.012 0-.0081 0-.0121 0-.008 0-.012 0-.008 0-.0121c0-.004 0-.008 0-.012s0-.008 0-.012 0-.0081 0-.0121 0-.008 0-.012 0-.008 0-.012 0-.008 0-.012c0-.0041 0-.0081 0-.0121s0-.008 0-.012 0-.008 0-.012 0-.008 0-.012 0-.008 0-.012 0-.008 0-.012 0-.008 0-.012 0-.008 0-.012 0-.008 0-.012 0-.008 0-.012 0-.008 0-.012 0-.008 0-.012 0-.008 0-.012 0-.008 0-.012 0-.008 0-.012c0-.0039 0-.0079 0-.0119s0-.008 0-.012 0-.008 0-.012 0-.0079 0-.0119 0-.008 0-.012 0-.008 0-.0119c0-.004 0-.008 0-.012s0-.008 0-.0119c0-.004 0-.008 0-.012s0-.0079 0-.0119 0-.008 0-.012c0-.0039 0-.0079 0-.0119s0-.0079 0-.0119 0-.008 0-.0119c0-.004 0-.008 0-.012 0-.0039 0-.0079 0-.0119 0-.0039 0-.0079 0-.0119s0-.0079 0-.0119 0-.0079 0-.0119 0-.0079 0-.0119 0-.0079 0-.0119c0-.0039 0-.0079 0-.0119 0-.0039 0-.0079 0-.0119 0-.0039 0-.0079 0-.0118 0-.004 0-.0079 0-.0119s0-.0079 0-.0119c0-.0039 0-.0079 0-.0118 0-.004 0-.0079 0-.0119 0-.0039 0-.0079 0-.0119 0-.0039 0-.0079 0-.0118s0-.0079 0-.0118c0-.004 0-.0079 0-.0119 0-.0039 0-.0079 0-.0118 0-.004 0-.0079 0-.0118 0-.004 0-.0079 0-.0119 0-.0039 0-.0078 0-.0118 0-.0039 0-.0079 0-.0118s0-.0079 0-.0118 0-.0079 0-.0118 0-.0079 0-.0118 0-.0079 0-.0118 0-.0079 0-.0118 0-.0078 0-.0118c0-.0039 0-.0078 0-.0117 0-.004 0-.0079 0-.0118s0-.0078 0-.0118c0-.0039 0-.0078 0-.0117s0-.0079 0-.0118 0-.0078 0-.0117 0-.0078 0-.0118c0-.0039 0-.0078 0-.0117s0-.0078 0-.0117 0-.0078 0-.0117 0-.0078 0-.0117c0-.004 0-.0079 0-.0118s0-.0078 0-.0117 0-.0078 0-.0117c0-.0038 0-.0077 0-.0116s0-.0078 0-.0117 0-.0078 0-.0117 0-.0078 0-.0117 0-.0077 0-.0116 0-.0078 0-.0117 0-.0078 0-.0116c0-.0039 0-.0078 0-.0117s0-.0077 0-.0116 0-.0078 0-.0116c0-.0039 0-.0078 0-.0117 0-.0038 0-.0077 0-.0116 0-.0038 0-.0077 0-.0116s0-.0077 0-.0116 0-.0077 0-.0116c0-.0038 0-.0077 0-.0116 0-.0038 0-.0077 0-.0115 0-.0039 0-.0078 0-.0116 0-.0039 0-.0077 0-.0116 0-.0038 0-.0077 0-.0115 0-.0039 0-.0077 0-.0116 0-.0038 0-.0077 0-.0115 0-.0039 0-.0077 0-.0116 0-.0038 0-.0077 0-.0115s0-.0077 0-.0115c0-.0039 0-.0077 0-.0115 0-.0039 0-.0077 0-.0115 0-.0039 0-.0077 0-.0115 0-.0039 0-.0077 0-.0115s0-.0077 0-.0115 0-.0076 0-.0115c0-.0038 0-.0076 0-.0114 0-.0039 0-.0077 0-.0115s0-.0076 0-.0114c0-.0039 0-.0077 0-.0115s0-.0076 0-.0114 0-.0076 0-.0114 0-.0077 0-.0115 0-.0076 0-.0114 0-.0076 0-.0114 0-.0076 0-.0114 0-.0075 0-.0113 0-.0076 0-.0114 0-.0076 0-.0114 0-.0076 0-.0113c0-.0038 0-.0076 0-.0114s0-.0075 0-.0113 0-.0076 0-.0114c0-.0037 0-.0075 0-.0113 0-.0037 0-.0075 0-.0113s0-.0075 0-.0113 0-.0075 0-.0113 0-.0075 0-.0113c0-.0037 0-.0075 0-.0113 0-.0037 0-.0075 0-.0112zm6.262-1.7962c-.0937 2.2427-.2548 5.5445-.2548 8.0437h1.2c0-2.4668.1593-5.7329.2538-7.9936zm-6.1481 9.6218c2.3199 0 4.8196.2943 7.1866 1.0743l.3755-1.1398c-2.5154-.8288-5.1468-1.1345-7.5621-1.1345z" fill="#000"/><path d="m31.8107 23.293c-.9566.4464-3.2091 2.6571-3.2091 4.9173" stroke="#000" stroke-linecap="round" stroke-linejoin="round" stroke-width="1.2"/><rect fill="#000" height="3.54818" rx=".426035" transform="matrix(.999814 -.0192937 .0116853 .999932 19.5938 1.69922)" width=".85207"/><rect fill="#000" height="3.29539" rx=".477556" transform="matrix(.714723 .699407 -.513937 .857828 24.043 3.3125)" width=".955113"/><rect fill="#000" height="3.43415" rx=".459935" transform="matrix(.864913 -.501922 .334676 .942333 15.1875 3.28613)" width=".919871"/><path d="m11.1554 11.8954c.0012.0526.0002.1066-.0028.1618 0-.0552.0009-.1091.0028-.1618z" fill="#fff"/><g stroke="#000" stroke-linecap="round" stroke-linejoin="round" stroke-width="1.2"><path d="m8.39881 40.2096c.76481-.2142 4.24249-2.281 4.66669-2.6026.4241-.3216 6.7294-4.1485 6.9411-6.53.4372-4.9189.6757-6.2613 1.3117-7.761.7722-1.821-1.1109-1.8534-1.9676-.9837-.8566.8696-1.2642 3.2361-1.4828 2.7327s-.3754-5.371-.3754-13.0078c0-2.56171-2.4332-2.31861-3.1073-.6501 0-.9444-.8278-1.64538-1.4837-1.64538s-1.7489.43728-1.7489 2.29548c.043-.7716-.328-1.3117-1.20245-1.0931-.87447.2186-1.09309 1.6532-1.09309 2.1862-.11235-.9534-2.17908-.6706-2.17908 2.0258s.1842 6.2379 0 9.8889c-.09614 1.9057-.12982 6.1047-.55365 6.6769-1.2358 1.6685-4.12433 3.6196-4.12433 3.6196"/><path d="m8.8889 13.2755c-.2035 2.8737-.03595 6.7111.05481 8.0206"/><path d="m11.203 11.9164c-.0943 2.284.1512 7.5268.2156 8.8785"/><path d="m14.3881 11.6329c-.2767 3.557-.0582 7.6961 0 9.3276"/><path d="m18.0306 25.0849c-.5466.9838-.9769 2.3764-.9838 2.9514"/></g></g></svg>