<svg fill="none" height="41" viewBox="0 0 40 41" width="40" xmlns="http://www.w3.org/2000/svg"><path d="m13.3897 26.9564-.3725.4704.0119.0094.0123.0088zm-2.7875-11.2034.5634.2068.004-.0117zm9.9761-7.02075-.0343.59902.0171.00098h.0172zm9.6829 7.02075.5675-.1947-.004-.0118-.0045-.0115zm-2.1273 10.7553.3715.4712.0359-.0283.0311-.0334zm-1.6872 5.6764-.5562-.225-.0265.0655-.0105.0698zm-9.9029 3.8838-.0758.5952.0377.0048h.0381zm7.2622 0v.6h.0089l.009-.0003zm-3.5945 2.6141-.0607.5969.0303.0031h.0304zm2.4208-1.3442.5385.2645.0305-.0621.0156-.0673zm11.5255-9.1815c.2917.1573.6556.0483.8128-.2434.1573-.2917.0483-.6556-.2434-.8129zm2.5587-7.9945c.3314 0 .6-.2687.6-.6 0-.3314-.2686-.6-.6-.6zm-1.9738-8.5204c.2869-.1658.3851-.5328.2193-.8197s-.5328-.3851-.8197-.2193zm-5.5737-6.42213c.1638-.28806.063-.65436-.225-.81816-.2881-.16379-.6544-.06305-.8182.22501zm-8.3575-2.53725c0-.33137-.2686-.6-.6-.6-.3313 0-.6.26863-.6.6zm-8.1475 1.9441c-.1638-.28806-.5301-.3888-.8181-.22501-.2881.1638-.3888.5301-.225.81816zm-6.2239 5.98378c-.28278-.1728-.65206-.0836-.82481.1992s-.08356.6521.19922.8248zm-2.4401 8.3519c-.33137 0-.6.2686-.6.6 0 .3313.26863.6.6.6zm1.82416 8.522c-.28596.1675-.38206.535-.21464.821.16742.2859.53496.382.82093.2146zm10.30014 2.6091c0-.3824-.146-.7742-.3149-1.1104-.1756-.3492-.4094-.7031-.6532-1.0265-.478-.6341-1.0544-1.2294-1.4183-1.4888l-.6965.9772c.223.1589.7139.6467 1.1565 1.2339.2165.2872.4063.5785.5393.8431.1395.2777.1871.4685.1871.5715zm-2.3621-3.6074c-1.6248-1.2867-4.47639-5.4041-2.5968-10.5264l-1.1265-.4134c-2.11092 5.7525 1.082 10.3788 2.9783 11.8805zm-2.5926-10.538c.3875-1.1275 1.5097-2.8712 3.1779-4.2947 1.6604-1.4167 3.7942-2.4599 6.1965-2.32213l.0687-1.19803c-2.8059-.16092-5.2324 1.06145-7.0441 2.60736-1.8038 1.5392-3.0656 3.4552-3.5339 4.8174zm9.4087-6.61585c2.4622.00011 7.1091 1.47495 9.124 6.63885l1.1179-.4361c-2.2398-5.74039-7.4225-7.40262-10.2419-7.40275zm9.1154 6.61555c.6741 1.9644 1.1895 6.7373-1.9983 10.151l.877.819c3.6196-3.876 3.0005-9.1911 2.2563-11.3595zm-1.9312 10.0893c-.3773.2974-1.21.9533-1.9222 1.674-.3547.3589-.7004.7544-.9459 1.1469-.2287.3654-.4535.8574-.3479 1.3591l1.1743-.2471c-.0044-.0211-.004-.1641.1909-.4755.1779-.2844.4539-.6078.7821-.9399.6533-.6611 1.4309-1.275 1.8116-1.5751zm-2.6288 3.4564h-9.6094v1.2h9.6094zm-10.0471.1896c-.2522.269-.5463.585-.7734.9303-.2302.35-.4234.7763-.4234 1.2727h1.2c0-.1759.0673-.372.226-.6133.1617-.246.3848-.4901.6462-.7689zm-1.1968 2.203c0 .4635.1096 1.0111.4355 1.4598.3462.4765.8964.7832 1.6316.7832v-1.2c-.3651 0-.5484-.134-.6607-.2886-.1325-.1823-.2064-.4563-.2064-.7544zm2.0671 2.243h.0052.0054.0054.0055.0056.0057.0059.0059.006.0061.0063.0063.0064.0065.0067.0067.0068.0069.007.0072.0072.0073.0074.0075.0076.0077.0078.0078.008.0081.0081.0083.0083.0085.0085.0087.0087.0088.0089.009.0091.0091.0093.0093.0095.0095.0096.0097.0098.0099.01.01.0102.0102.0103.0104.0105.0106.0106.0108.0108.0109.011.011.0112.0112.0113.0115.0114.0116.0116.0118.0118.0118.012.012.0122.0122.0122.0124.0124.0125.0126.0127.0127.0128.0129.013.013.0131.0132.0133.0133.0134.0135.0135.0136.0137.0138.0138.0139.014.0141.0141.0142.0142.0144.0143.0145.0145.0146.0147.0147.0148.0149.0149.015.0151.0151.0152.0152.0154.0153.0155.0155.0156.0156.0157.0157.0159.0158.016.016.016.0161.0162.0163.0162.0164.0164.0165.0165.0166.0166.0167.0168.0168.0168.017.0169.0171.017.0172.0172.0172.0173.0173.0174.0175.0175.0175.0176.0177.0177.0177.0178.0179.0179.0179.018.0181.0181.0181.0182.0182.0183.0183.0184.0184.0185.0185.0185.0186.0187.0186.0188.0187.0188.0189.0189.0189.019.019.019.0191.0192.0191.0193.0192.0193.0193.0194.0194.0194.0195.0195.0195.0196.0196.0197.0197.0197.0198.0197.0199.0198.0199.0199.02.02.02.02.0201.0201.0202.0201.0202.0203.0202.0203.0203.0203.0204.0204.0204.0205.0204.0205.0206.0205.0206.0206.0206.0207.0206.0207.0207.0208.0207.0208.0208.0209.0208.0209.0209.0209.0209.0209.021.021.021.021.0211.021.0211.0211.0211.0211.0211.0212.0212.0211.0212.0212.0213.0212.0213.0212.0213.0213.0213.0213.0213.0213.0214.0213.0214.0214.0214.0213.0214.0215.0214.0214.0214.0215.0214.0214.0215.0215.0214.0215.0215.0214.0215.0215.0215.0215.0215.0215.0215.0215.0215.0215.0215.0215.0215.0215.0215.0215.0215.0215.0215.0215.0215.0215.0214.0215.0215.0215.0214.0215.0215.0214.0214.0215.0214.0214.0215.0214.0214.0214.0214.0213.0214.0214.0213.0213.0214.0213.0213.0213.0213.0212.0213.0212.0213.0212.0212.0212.0211.0212.0211.0212.0211.0211.0211.021.0211.021.021.021.021.0209.021.0209.0209.0209.0208.0209.0208.0208.0207.0208.0207.0207.0207.0207.0206.0206.0206.0206.0205.0205.0205.0204.0205.0204.0204.0203.0203.0203.0203.0202.0203.0201.0202.0201.0201.0201.02.02.02.0199.0199.0199.0198.0198.0198.0197.0197.0197.0196.0196.0196.0195.0195.0195.0194.0194.0193.0193.0193.0192.0192.0191.0192.019.0191.019.0189.0189.0189.0188.0188.0187.0187.0187.0186.0186.0185.0185.0184.0184.0183.0183.0183.0182.0182.0181.018.0181.0179.018.0178.0179.0177.0178.0176.0177.0175.0176.0174.0175.0173.0173.0173.0172.0172.0171.017.017.017.0169.0168.0168.0167.0167.0166.0165.0165.0165.0163.0164.0162.0162.0162.0161.016.0159.016.0158.0158.0157.0157.0156.0155.0155.0154.0153.0153.0152v-1.2c-.005 0-.0101 0-.0152 0s-.0102 0-.0153 0-.0102 0-.0153 0-.0103 0-.0154 0c-.0052 0-.0103 0-.0155 0s-.0103 0-.0155 0-.0104 0-.0156 0-.0105 0-.0157 0-.0105 0-.0157 0c-.0053 0-.0105 0-.0158 0s-.0106 0-.0158 0c-.0053 0-.0106 0-.016 0-.0053 0-.0106 0-.0159 0-.0054 0-.0107 0-.016 0-.0054 0-.0108 0-.0161 0-.0054 0-.0108 0-.0162 0s-.0108 0-.0162 0-.0108 0-.0162 0c-.0055 0-.0109 0-.0164 0-.0054 0-.0109 0-.0163 0-.0055 0-.011 0-.0165 0s-.011 0-.0165 0-.011 0-.0165 0c-.0056 0-.0111 0-.0166 0-.0056 0-.0111 0-.0167 0s-.0111 0-.0167 0-.0112 0-.0168 0-.0112 0-.0168 0c-.0057 0-.0113 0-.0169 0-.0057 0-.0113 0-.017 0-.0056 0-.0113 0-.017 0-.0056 0-.0113 0-.017 0s-.0114 0-.0171 0-.0114 0-.0172 0c-.0057 0-.0114 0-.0172 0-.0057 0-.0115 0-.0173 0-.0057 0-.0115 0-.0173 0s-.0115 0-.0173 0-.0116 0-.0175 0c-.0058 0-.0116 0-.0174 0-.0059 0-.0117 0-.0176 0-.0058 0-.0117 0-.0175 0-.0059 0-.0118 0-.0177 0-.0058 0-.0117 0-.0176 0s-.0118 0-.0178 0c-.0059 0-.0118 0-.0177 0-.006 0-.0119 0-.0179 0-.0059 0-.0119 0-.0178 0-.006 0-.012 0-.018 0-.0059 0-.0119 0-.0179 0s-.012 0-.0181 0c-.006 0-.012 0-.018 0s-.0121 0-.0181 0c-.0061 0-.0121 0-.0182 0s-.0121 0-.0182 0-.0122 0-.0183 0c-.006 0-.0121 0-.0183 0-.0061 0-.0122 0-.0183 0s-.0123 0-.0184 0-.0123 0-.0184 0c-.0062 0-.0123 0-.0185 0s-.0123 0-.0185 0-.0124 0-.0186 0-.0124 0-.0186 0-.0124 0-.0187 0c-.0062 0-.0124 0-.0187 0-.0062 0-.0125 0-.0187 0-.0063 0-.0125 0-.0188 0s-.0125 0-.0188 0-.0126 0-.0189 0-.0126 0-.0189 0-.0126 0-.0189 0c-.0064 0-.0127 0-.019 0-.0064 0-.0127 0-.0191 0-.0063 0-.0127 0-.019 0-.0064 0-.0128 0-.0192 0-.0063 0-.0127 0-.0191 0s-.0128 0-.0192 0-.0128 0-.0192 0-.0129 0-.0193 0-.0129 0-.0193 0-.0129 0-.0193 0c-.0065 0-.013 0-.0194 0-.0065 0-.013 0-.0194 0-.0065 0-.013 0-.0195 0s-.013 0-.0195 0-.013 0-.0195 0-.013 0-.0196 0c-.0065 0-.013 0-.0196 0-.0065 0-.0131 0-.0196 0-.0066 0-.0131 0-.0197 0-.0065 0-.0131 0-.0197 0-.0065 0-.0131 0-.0197 0s-.0132 0-.0198 0-.0132 0-.0198 0-.0132 0-.0198 0-.0133 0-.0199 0-.0133 0-.0199 0-.0133 0-.0199 0c-.0067 0-.0133 0-.02 0s-.0133 0-.02 0-.0134 0-.02 0c-.0067 0-.0134 0-.0201 0s-.0134 0-.0201 0-.0134 0-.0201 0-.0134 0-.0202 0c-.0067 0-.0134 0-.0201 0-.0068 0-.0135 0-.0203 0-.0067 0-.0134 0-.0202 0-.0067 0-.0135 0-.0203 0-.0067 0-.0135 0-.0203 0-.0067 0-.0135 0-.0203 0s-.0135 0-.0203 0-.0136 0-.0204 0-.0136 0-.0204 0-.0136 0-.0205 0c-.0068 0-.0136 0-.0204 0s-.0137 0-.0205 0-.0137 0-.0205 0c-.0069 0-.0137 0-.0205 0-.0069 0-.0138 0-.0206 0-.0069 0-.0137 0-.0206 0s-.0137 0-.0206 0-.0138 0-.0206 0c-.0069 0-.0138 0-.0207 0s-.0138 0-.0207 0-.0138 0-.0207 0-.0138 0-.0207 0-.0138 0-.0208 0c-.0069 0-.0138 0-.0207 0-.007 0-.0139 0-.0208 0-.007 0-.0139 0-.0208 0-.007 0-.0139 0-.0209 0-.0069 0-.0139 0-.0208 0-.007 0-.0139 0-.0209 0s-.0139 0-.0209 0-.014 0-.0209 0c-.007 0-.014 0-.021 0-.0069 0-.0139 0-.0209 0s-.014 0-.021 0-.014 0-.021 0-.014 0-.021 0-.014 0-.021 0-.0141 0-.0211 0-.014 0-.021 0c-.0071 0-.0141 0-.0211 0s-.0141 0-.0211 0-.0141 0-.0211 0c-.0071 0-.0141 0-.0212 0-.007 0-.014 0-.0211 0-.007 0-.0141 0-.0212 0-.007 0-.0141 0-.0211 0-.0071 0-.0142 0-.0212 0-.0071 0-.0142 0-.0212 0-.0071 0-.0142 0-.0212 0-.0071 0-.0142 0-.0213 0-.007 0-.0141 0-.0212 0s-.0142 0-.0213 0-.0141 0-.0212 0-.0142 0-.0213 0-.0142 0-.0213 0-.0142 0-.0213 0-.0142 0-.0213 0-.0142 0-.0214 0c-.0071 0-.0142 0-.0213 0s-.0142 0-.0213 0c-.0072 0-.0143 0-.0214 0s-.0142 0-.0214 0c-.0071 0-.0142 0-.0213 0-.0072 0-.0143 0-.0214 0-.0072 0-.0143 0-.0214 0-.0072 0-.0143 0-.0214 0-.0072 0-.0143 0-.0214 0-.0072 0-.0143 0-.0215 0-.0071 0-.0142 0-.0214 0-.0071 0-.0143 0-.0214 0-.0072 0-.0143 0-.0215 0-.0071 0-.0142 0-.0214 0-.0071 0-.0143 0-.0214 0-.0072 0-.0144 0-.0215 0-.0072 0-.0143 0-.0215 0-.0071 0-.0143 0-.0214 0-.0072 0-.0143 0-.0215 0s-.0143 0-.0215 0c-.0071 0-.0143 0-.0215 0-.0071 0-.0143 0-.0214 0-.0072 0-.0144 0-.0215 0-.0072 0-.0144 0-.0215 0-.0072 0-.0143 0-.0215 0s-.0143 0-.0215 0-.0143 0-.0215 0-.0143 0-.0215 0-.0143 0-.0215 0-.0143 0-.0215 0-.0143 0-.0215 0-.0143 0-.0215 0-.0143 0-.0215 0-.0144 0-.0215 0c-.0072 0-.0144 0-.0215 0-.0072 0-.0144 0-.0215 0-.0072 0-.0144 0-.0215 0-.0072 0-.0144 0-.0215 0-.0072 0-.0143 0-.0215 0s-.0143 0-.0215 0-.0143 0-.0215 0-.0143 0-.0215 0-.0143 0-.0215 0c-.0071 0-.0143 0-.0215 0-.0071 0-.0143 0-.0214 0-.0072 0-.0144 0-.0215 0-.0072 0-.0143 0-.0215 0-.0071 0-.0143 0-.0214 0-.0072 0-.0144 0-.0215 0-.0072 0-.0143 0-.0215 0-.0071 0-.0143 0-.0214 0-.0072 0-.0143 0-.0214 0-.0072 0-.0143 0-.0215 0-.0071 0-.0143 0-.0214 0-.0072 0-.0143 0-.0214 0-.0072 0-.0143 0-.0214 0-.0072 0-.0143 0-.0215 0-.0071 0-.0142 0-.0214 0-.0071 0-.0142 0-.0213 0-.0072 0-.0143 0-.0214 0-.0072 0-.0143 0-.0214 0s-.0142 0-.0214 0c-.0071 0-.0142 0-.0213 0s-.0142 0-.0214 0c-.0071 0-.0142 0-.0213 0s-.0142 0-.0213 0-.0142 0-.0213 0-.0142 0-.0213 0-.0142 0-.0213 0-.0142 0-.0213 0-.0142 0-.0212 0c-.0071 0-.0142 0-.0213 0s-.0142 0-.0212 0c-.0071 0-.0142 0-.0213 0-.007 0-.0141 0-.0212 0-.007 0-.0141 0-.0212 0-.007 0-.0141 0-.0211 0-.0071 0-.0142 0-.0212 0-.0071 0-.0141 0-.0212 0-.007 0-.0141 0-.0211 0s-.0141 0-.0211 0c-.0071 0-.0141 0-.0211 0-.0071 0-.0141 0-.0211 0s-.0141 0-.0211 0-.014 0-.021 0c-.0071 0-.0141 0-.0211 0s-.014 0-.021 0-.014 0-.021 0-.014 0-.021 0-.014 0-.021 0c-.0069 0-.0139 0-.0209 0s-.014 0-.0209 0c-.007 0-.014 0-.0209 0-.007 0-.014 0-.0209 0-.007 0-.0139 0-.0209 0-.0069 0-.0139 0-.0208 0-.007 0-.0139 0-.0209 0-.0069 0-.0138 0-.0208 0-.0069 0-.0138 0-.0208 0-.0069 0-.0138 0-.0207 0s-.0138 0-.0208 0c-.0069 0-.0138 0-.0207 0s-.0138 0-.0207 0-.0138 0-.0206 0c-.0069 0-.0138 0-.0207 0s-.0137 0-.0206 0-.0137 0-.0206 0-.0137 0-.0206 0c-.0068 0-.0137 0-.0205 0-.0069 0-.0137 0-.0206 0-.0068 0-.0136 0-.0205 0-.0068 0-.0136 0-.0204 0-.0069 0-.0137 0-.0205 0s-.0136 0-.0204 0-.0136 0-.0204 0-.0136 0-.0204 0c-.0067 0-.0135 0-.0203 0s-.0135 0-.0203 0-.0135 0-.0203 0-.0135 0-.0202 0c-.0068 0-.0135 0-.0203 0-.0067 0-.0134 0-.0202 0-.0067 0-.0134 0-.0201 0-.0068 0-.0135 0-.0202 0s-.0134 0-.0201 0-.0134 0-.0201 0-.0133 0-.02 0-.0134 0-.02 0c-.0067 0-.0134 0-.02 0-.0067 0-.0133 0-.02 0-.0066 0-.0132 0-.0199 0-.0066 0-.0132 0-.0199 0-.0066 0-.0132 0-.0198 0s-.0132 0-.0199 0c-.0066 0-.0131 0-.0197 0s-.0132 0-.0198 0-.0131 0-.0197 0-.0131 0-.0197 0-.0131 0-.0197 0c-.0065 0-.013 0-.0196 0-.0065 0-.013 0-.0196 0-.0065 0-.013 0-.0195 0s-.013 0-.0195 0-.013 0-.0195 0-.013 0-.0194 0c-.0065 0-.013 0-.0194 0-.0065 0-.0129 0-.0194 0-.0064 0-.0129 0-.0193 0s-.0129 0-.0193 0-.0128 0-.0192 0c-.0065 0-.0129 0-.0193 0s-.0127 0-.0191 0-.0128 0-.0192 0c-.0063 0-.0127 0-.0191 0-.0063 0-.0127 0-.019 0-.0064 0-.0127 0-.019 0-.0064 0-.0127 0-.019 0s-.0126 0-.0189 0-.0126 0-.0189 0-.0126 0-.0189 0c-.0062 0-.0125 0-.0188 0-.0062 0-.0125 0-.0187 0-.0063 0-.0125 0-.0188 0-.0062 0-.0124 0-.0186 0-.0063 0-.0125 0-.0187 0s-.0124 0-.0186 0-.0123 0-.0185 0-.0124 0-.0185 0c-.0062 0-.0123 0-.0185 0-.0061 0-.0123 0-.0184 0s-.0122 0-.0184 0c-.0061 0-.0122 0-.0183 0s-.0122 0-.0183 0c-.006 0-.0121 0-.0182 0s-.0121 0-.0182 0c-.006 0-.0121 0-.0181 0-.0061 0-.0121 0-.0181 0s-.0121 0-.0181 0-.012 0-.018 0c-.0059 0-.0119 0-.0179 0s-.0119 0-.0179 0-.0119 0-.0179 0c-.0059 0-.0118 0-.0178 0-.0059 0-.0118 0-.0177 0s-.0118 0-.0177 0-.0118 0-.0177 0c-.0058 0-.0117 0-.0176 0-.0058 0-.0117 0-.0175 0-.0059 0-.0117 0-.0175 0s-.0117 0-.0175 0-.0116 0-.0174 0-.0115 0-.0173 0-.0115 0-.0173 0-.0115 0-.0172 0c-.0058 0-.0115 0-.0172 0-.0058 0-.0115 0-.0172 0s-.0114 0-.017 0c-.0057 0-.0114 0-.0171 0-.0056 0-.0113 0-.0169 0-.0057 0-.0113 0-.017 0-.0056 0-.0112 0-.0168 0s-.0112 0-.0168 0-.0112 0-.0168 0-.0111 0-.0167 0c-.0055 0-.0111 0-.0166 0-.0056 0-.0111 0-.0166 0s-.011 0-.0165 0-.011 0-.0165 0-.0109 0-.0164 0-.0109 0-.0164 0c-.0054 0-.0108 0-.0162 0-.0055 0-.0109 0-.0163 0s-.0108 0-.0162 0c-.0053 0-.0107 0-.0161 0-.0053 0-.0107 0-.016 0-.0054 0-.0107 0-.016 0-.0054 0-.0107 0-.016 0s-.0106 0-.0158 0c-.0053 0-.0106 0-.0159 0-.0052 0-.0105 0-.0157 0-.0053 0-.0105 0-.0157 0s-.0104 0-.0156 0-.0104 0-.0156 0-.0104 0-.0155 0c-.0052 0-.0103 0-.0155 0-.0051 0-.0102 0-.0153 0-.0052 0-.0103 0-.0154 0s-.0101 0-.0152 0-.0102 0-.0152 0c-.0051 0-.0101 0-.0151 0-.0051 0-.0101 0-.0151 0s-.01 0-.015 0-.0099 0-.0149 0-.0099 0-.0149 0c-.0049 0-.0099 0-.0148 0s-.0098 0-.0147 0-.0098 0-.0147 0c-.0048 0-.0097 0-.0146 0-.0048 0-.0097 0-.0145 0s-.0096 0-.0145 0c-.0048 0-.0096 0-.0143 0-.0048 0-.0096 0-.0144 0-.0047 0-.0095 0-.0142 0-.0048 0-.0095 0-.0142 0s-.0094 0-.0141 0-.0094 0-.0141 0c-.0046 0-.0093 0-.014 0-.0046 0-.0092 0-.0139 0-.0046 0-.0092 0-.0138 0s-.0092 0-.0138 0c-.0045 0-.0091 0-.0137 0-.0045 0-.0091 0-.0136 0s-.009 0-.0135 0-.009 0-.0135 0-.009 0-.0134 0c-.0045 0-.0089 0-.0133 0-.0045 0-.0089 0-.0133 0s-.0088 0-.0132 0-.0087 0-.0131 0-.0087 0-.013 0c-.0044 0-.0087 0-.013 0s-.0086 0-.0129 0-.0085 0-.0128 0-.0085 0-.0127 0c-.0043 0-.0085 0-.0127 0s-.0084 0-.0126 0-.0083 0-.0125 0c-.0041 0-.0083 0-.0124 0s-.0083 0-.0124 0-.0082 0-.0122 0c-.0041 0-.0082 0-.0122 0-.0041 0-.0081 0-.0122 0-.004 0-.008 0-.012 0s-.008 0-.012 0c-.0039 0-.0079 0-.0118 0-.004 0-.0079 0-.0118 0-.004 0-.0079 0-.0118 0s-.0077 0-.0116 0-.0077 0-.0116 0c-.0038 0-.0076 0-.0114 0-.0039 0-.0077 0-.0115 0-.0037 0-.0075 0-.0113 0-.0037 0-.0075 0-.0112 0s-.0075 0-.0112 0-.0074 0-.011 0c-.0037 0-.0074 0-.011 0-.0037 0-.0073 0-.0109 0s-.0073 0-.0108 0c-.0036 0-.0072 0-.0108 0-.0035 0-.0071 0-.0106 0-.0036 0-.0071 0-.0106 0s-.007 0-.0105 0-.0069 0-.0104 0c-.0034 0-.0069 0-.0103 0s-.0068 0-.0102 0-.0068 0-.0102 0c-.0033 0-.0067 0-.01 0-.0034 0-.0067 0-.01 0s-.0066 0-.0099 0-.0065 0-.0098 0c-.0032 0-.0065 0-.0097 0s-.0064 0-.0096 0-.0064 0-.0095 0c-.0032 0-.0063 0-.0095 0-.0031 0-.0062 0-.0093 0s-.0062 0-.0093 0c-.003 0-.0061 0-.0091 0-.0031 0-.0061 0-.0091 0s-.006 0-.009 0-.006 0-.0089 0c-.003 0-.0059 0-.0088 0-.003 0-.0059 0-.0087 0-.0029 0-.0058 0-.0087 0-.0028 0-.0057 0-.0085 0s-.0057 0-.0085 0-.0055 0-.0083 0-.0055 0-.0083 0c-.0027 0-.0054 0-.0081 0s-.0054 0-.0081 0-.0053 0-.008 0c-.0026 0-.0052 0-.0078 0-.0027 0-.0053 0-.0078 0-.0026 0-.0052 0-.0077 0-.0026 0-.0051 0-.0076 0s-.005 0-.0075 0-.005 0-.0074 0c-.0025 0-.0049 0-.0073 0-.0025 0-.0049 0-.0072 0-.0024 0-.0048 0-.0072 0-.0023 0-.0047 0-.007 0s-.0046 0-.0069 0-.0046 0-.0068 0c-.0023 0-.0045 0-.0067 0-.0023 0-.0045 0-.0067 0s-.0043 0-.0065 0-.0043 0-.0064 0-.0043 0-.0063 0c-.0021 0-.0042 0-.0063 0-.002 0-.0041 0-.0061 0s-.004 0-.006 0-.004 0-.0059 0c-.002 0-.0039 0-.0059 0-.0019 0-.0038 0-.0057 0s-.0038 0-.0056 0c-.0019 0-.0037 0-.0055 0-.0019 0-.0037 0-.0054 0-.0018 0-.0036 0-.0054 0-.0017 0-.0035 0-.0052 0zm9.024-.0186c.2987-.076.7402-.2432 1.1364-.5133.386-.2633.8277-.6939.9227-1.3229l-1.1865-.1793c-.0223.1478-.143.3271-.4123.5108-.2592.1767-.5659.2933-.7563.3418zm2.0221-1.7009c.1583-.3915.1438-.8321-.1144-1.3108-.2381-.4413-.6835-.9187-1.381-1.4745l-.7479.9385c.6523.5197.949.8763 1.0728 1.1058.1037.1922.0708.2594.058.2911zm-11.5812.8482c-.2172.4283-.471 1.1248-.4459 1.7859.0129.3401.102.7208.3617 1.0398.2681.3292.6587.5202 1.1304.5802l.1515-1.1904c-.2324-.0296-.3162-.1044-.3514-.1475-.0434-.0534-.0864-.1516-.0931-.3275-.014-.3709.143-.8545.3171-1.1979zm8.4021 3.4104c.4852-.0145 1.2588-.1764 1.7211-.7711.5227-.6723.444-1.5989-.1965-2.6749l-1.0311.6138c.5331.8957.3566 1.2264.2803 1.3246-.1368.1759-.4636.2978-.8097.3082zm-7.2801.0003h1.3204v-1.2h-1.3204zm.7215-.5632c.0298.4862.203 1.2032.6342 1.8387.4443.6547 1.1679 1.2252 2.2513 1.3355l.1215-1.1938c-.6771-.0689-1.1027-.4072-1.3798-.8155-.2901-.4276-.4104-.928-.4295-1.2385zm2.9462 3.1773c.8292 0 2.2973-.3315 2.9593-1.6797l-1.0771-.529c-.3649.7431-1.2442 1.0087-1.8822 1.0087zm-2.3473-2.6141h5.0615v-1.2h-5.0615zm5.0615 0h.8803v-1.2h-.8803zm.2912.805.2934-1.2699-1.1692-.2702-.2934 1.2699zm8.4468-10.661 2.4941 1.3444.5694-1.0563-2.4941-1.3444zm1.9719-6.6501h3.0809v-1.2h-3.0809zm-1.6071-6.9519 2.7142-1.5685-.6004-1.039-2.7142 1.5685zm-4.4733-5.15245 1.6138-2.83818-1.0432-.59315-1.6138 2.83819zm-7.9437-5.37543v3.51039h1.2v-3.51039zm-7.9906 2.53725 1.6138 2.83818 1.0431-.59314-1.6138-2.83819zm-5.80639 6.41463 2.93422 1.7925.62559-1.024-2.93422-1.7925zm-1.81451 8.5279h3.08093v-1.2h-3.08093zm2.43045 8.3576 2.93421-1.7178-.60628-1.0356-2.93422 1.7178z" fill="#000"/><g stroke="#000" stroke-width="1.2"><path d="m24.7086 15.817-.0986.3493c-.2603.9216.1396 1.9021.9701 2.3789l.2978.1709c.5949.3415.5949 1.1997 0 1.5412l-.2978.1709c-.8305.4767-1.2304 1.4572-.9701 2.3788l.0986.3493c.1919.6796-.4517 1.2985-1.1232 1.0801-.9817-.3193-2.049.129-2.5092 1.0524-.3259.654-1.2603.654-1.5863 0-.4602-.9234-1.5274-1.3717-2.5091-1.0524-.6715.2184-1.3151-.4005-1.1233-1.0801l.0987-.3493c.2602-.9216-.1397-1.9021-.9702-2.3788l-.2978-.1709c-.5949-.3415-.5949-1.1997 0-1.5412l.2978-.1709c.8305-.4768 1.2304-1.4573.9702-2.3789l-.0987-.3493c-.1918-.6796.4518-1.2984 1.1233-1.08.9817.3193 2.0489-.129 2.5091-1.0524.326-.654 1.2604-.654 1.5863 0 .4602.9234 1.5275 1.3717 2.5092 1.0524.6715-.2184 1.3151.4004 1.1232 1.08z"/><path d="m22.5492 19.5618c0 1.2464-.9895 2.2382-2.1875 2.2382s-2.1875-.9918-2.1875-2.2382c0-1.2463.9895-2.2382 2.1875-2.2382s2.1875.9919 2.1875 2.2382z"/></g></svg>